<?xml version="1.0" encoding="UTF-8" standalone="no"?><!-- Generator: Gravit.io --><svg xmlns="http://www.w3.org/2000/svg" xmlns:xlink="http://www.w3.org/1999/xlink" style="isolation:isolate" viewBox="12 647 88.06 158" width="88.06pt" height="158pt"><path d=" M 34.786 800 L 34.786 691 M 77.274 800 L 77.274 749.25 M 59.489 728.25 C 59.489 718.316 67.458 710.25 77.274 710.25 C 87.091 710.25 95.06 718.316 95.06 728.25 C 95.06 738.184 87.091 746.25 77.274 746.25 C 67.458 746.25 59.489 738.184 59.489 728.25 Z  M 17 670 C 17 660.066 24.97 652 34.786 652 C 44.602 652 52.572 660.066 52.572 670 C 52.572 679.934 44.602 688 34.786 688 C 24.97 688 17 679.934 17 670 Z " fill-rule="evenodd" fill="none" vector-effect="non-scaling-stroke" stroke-width="10" stroke="rgb(255,255,255)" stroke-linejoin="miter" stroke-linecap="square" stroke-miterlimit="3"/></svg>